<?xml version="1.0" standalone="no"?>
<!DOCTYPE svg PUBLIC "-//W3C//DTD SVG 20010904//EN"
 "http://www.w3.org/TR/2001/REC-SVG-20010904/DTD/svg10.dtd">
<svg version="1.0" xmlns="http://www.w3.org/2000/svg"
 width="1024.000000pt" height="1024.000000pt" viewBox="0 0 1024.000000 1024.000000"
 preserveAspectRatio="xMidYMid meet">

<g transform="translate(0.000000,1024.000000) scale(0.100000,-0.100000)"
fill="#000000" stroke="none">
<path d="M5240 9393 c-186 -20 -385 -92 -546 -199 l-51 -34 -99 15 c-344 52
-653 -45 -946 -297 -164 -141 -373 -463 -487 -750 -104 -264 -182 -621 -211
-968 -22 -270 -10 -695 31 -1085 13 -121 92 -631 114 -734 17 -84 17 -86 -50
-97 -22 -3 -121 -25 -220 -49 -99 -24 -241 -57 -315 -74 -74 -18 -174 -41
-222 -53 l-88 -21 0 -1608 0 -1609 22 -5 c27 -6 211 -35 453 -70 94 -14 278
-41 410 -60 132 -19 350 -51 485 -70 135 -20 358 -53 495 -75 306 -49 654
-101 1225 -185 429 -63 814 -120 1020 -151 58 -9 220 -33 360 -53 l254 -38 56
42 c30 23 80 60 110 82 30 22 125 92 210 155 218 160 440 322 473 343 l27 17
0 1649 c0 1403 -2 1649 -14 1649 -8 0 -58 4 -112 9 -55 5 -130 12 -169 16 -80
7 -309 27 -639 55 -126 11 -232 22 -234 25 -2 2 5 32 17 67 39 120 154 524
195 683 68 267 119 531 153 790 25 196 25 694 0 875 -47 331 -126 606 -247
858 -151 314 -344 545 -595 714 -268 180 -591 270 -865 241z m358 -47 c40 -9
116 -32 170 -52 486 -182 831 -569 1022 -1147 218 -657 209 -1345 -30 -2262
-47 -181 -177 -630 -199 -687 -10 -26 -15 -28 -66 -28 -49 0 -56 2 -51 18 3 9
27 91 54 182 28 91 73 242 101 336 118 399 187 734 227 1109 13 124 15 211 11
385 -5 210 -10 257 -38 430 -34 205 -106 463 -175 628 -104 248 -222 436 -375
596 -306 320 -714 460 -1109 379 -76 -15 -267 -83 -306 -108 -18 -11 -30 -10
-82 7 -34 11 -62 23 -62 27 0 9 130 83 195 111 83 36 205 72 290 86 100 16
323 11 423 -10z m-71 -126 c548 -89 977 -551 1173 -1264 82 -299 115 -542 114
-846 -2 -352 -52 -690 -174 -1165 -53 -204 -216 -745 -229 -758 -8 -8 -92 -4
-291 14 -154 14 -282 27 -284 30 -2 2 9 45 26 94 93 281 180 660 219 949 26
199 35 537 20 729 -42 520 -203 1021 -452 1402 -75 116 -220 296 -285 355
-148 134 -265 216 -404 286 -49 24 -94 44 -100 44 -50 0 93 64 233 104 119 34
311 46 434 26z m-977 -74 c188 -30 337 -84 495 -177 570 -335 959 -1089 1036
-2004 37 -443 -55 -1059 -247 -1647 l-29 -88 -52 0 c-60 0 -62 3 -37 71 47
134 149 526 188 724 85 440 96 783 36 1171 -82 534 -304 1051 -592 1384 -205
236 -516 414 -812 465 -112 19 -200 19 -312 0 -122 -21 -171 -38 -297 -103
-218 -112 -388 -288 -543 -559 -250 -439 -376 -1025 -361 -1683 10 -430 45
-723 162 -1370 32 -174 52 -285 60 -333 l6 -38 -53 3 -53 3 -17 85 c-220 1089
-267 1784 -163 2425 137 844 550 1470 1080 1635 156 49 345 62 505 36z m-80
-122 c0 -3 -24 -34 -53 -67 -319 -371 -490 -772 -574 -1347 -25 -172 -25 -659
1 -869 35 -292 140 -839 247 -1280 11 -46 18 -86 15 -88 -5 -5 -231 12 -621
47 -121 11 -236 17 -255 14 l-36 -6 -32 184 c-72 419 -96 628 -113 972 -21
442 23 852 132 1237 189 669 565 1111 1016 1193 78 14 273 21 273 10z m109
-16 l50 -11 -65 -71 c-143 -156 -276 -353 -362 -536 -147 -314 -236 -709 -249
-1110 -13 -384 44 -782 231 -1618 37 -161 66 -295 66 -298 0 -3 -26 -4 -57 -2
-55 3 -58 4 -64 33 -3 17 -38 176 -77 355 -133 614 -149 704 -193 1085 -20
166 -16 600 5 755 72 512 227 911 486 1245 78 101 156 185 170 185 5 0 31 -5
59 -12z m173 -49 c458 -157 834 -610 1041 -1254 117 -363 164 -689 154 -1075
-9 -362 -55 -623 -204 -1152 l-67 -238 -39 0 c-22 0 -112 7 -201 15 -88 8
-251 21 -361 30 -517 41 -781 67 -791 78 -11 12 -122 503 -189 833 -67 332
-102 588 -113 816 -31 676 129 1283 453 1718 93 124 212 250 236 250 10 0 47
-10 81 -21z m-1502 -3676 c0 -69 -2 -124 -4 -122 -5 5 -46 214 -46 235 0 8 10
14 25 14 l25 0 0 -127z m275 107 c178 -15 801 -68 1045 -89 124 -11 340 -29
480 -41 408 -33 604 -50 607 -54 5 -4 -112 -350 -152 -448 -8 -21 -8 -21 -111
-8 -124 14 -517 53 -929 90 -55 5 -145 14 -200 19 -55 6 -179 18 -275 26 -330
29 -704 66 -711 70 -4 3 -7 107 -7 231 l-1 227 72 -7 c40 -4 122 -11 182 -16z
m-435 -285 c12 -69 20 -128 18 -131 -3 -2 -102 4 -219 16 -118 11 -301 28
-406 37 -106 10 -193 20 -193 23 0 3 26 12 58 19 31 6 199 45 372 85 173 41
322 74 331 75 12 1 20 -25 39 -124z m2696 90 c4 -10 -135 -429 -151 -455 -7
-11 -97 -14 -108 -4 -3 3 3 27 14 52 11 26 45 121 76 212 31 91 60 175 64 188
7 19 15 22 55 20 25 -1 48 -6 50 -13z m454 -30 c157 -13 436 -38 620 -54 184
-17 421 -38 525 -47 105 -10 192 -19 194 -21 11 -8 -16 -14 -170 -38 -253 -40
-582 -95 -586 -99 -2 -2 -6 -43 -8 -92 -3 -49 -7 -115 -11 -146 -6 -55 -7 -57
-32 -53 -15 3 -79 9 -142 15 -63 6 -245 24 -405 40 -159 17 -351 36 -425 42
-74 6 -136 12 -138 13 -1 1 34 107 78 236 44 128 80 235 80 238 0 2 30 1 68
-3 37 -3 195 -17 352 -31z m-3920 -150 c69 -8 206 -21 305 -30 99 -8 209 -18
245 -21 36 -3 71 -8 79 -10 8 -3 -144 -161 -378 -394 -215 -215 -393 -390
-396 -390 -8 0 -6 846 2 853 8 9 -4 9 143 -8z m5410 -1594 c0 -886 -4 -1612
-8 -1615 -5 -3 -21 7 -37 22 -16 15 -100 92 -186 172 -86 80 -258 240 -383
355 l-225 210 -1 1055 c0 615 -4 1082 -10 1120 -5 36 -12 84 -16 106 l-6 42
43 7 c24 3 105 17 179 30 74 13 200 33 280 46 80 12 188 30 240 39 52 10 103
18 113 19 16 1 17 -82 17 -1608z m-4554 1513 c87 -8 250 -23 362 -34 112 -10
205 -20 207 -22 2 -2 -350 -358 -783 -791 l-787 -788 -3 413 -2 413 412 412
c227 227 418 413 424 413 6 0 82 -7 170 -16z m779 -74 c72 -6 173 -15 225 -20
52 -5 157 -15 233 -22 75 -6 137 -14 137 -17 0 -3 -536 -541 -1190 -1196
l-1190 -1189 0 419 0 420 812 813 c527 526 818 810 828 807 8 -2 74 -9 145
-15z m973 -90 c403 -38 422 -40 422 -48 0 -4 -652 -661 -1448 -1461 l-1448
-1454 -44 8 c-25 4 -88 13 -140 19 l-95 11 -3 268 -2 268 1209 1210 c665 665
1214 1209 1220 1209 7 0 154 -13 329 -30z m817 -80 c165 -16 330 -32 367 -36
l66 -6 -41 -36 c-23 -19 -691 -683 -1484 -1475 l-1441 -1440 -334 47 c-183 26
-347 50 -365 53 -31 5 1 37 1380 1421 777 779 1432 1435 1457 1459 28 27 54
43 70 43 14 0 160 -13 325 -30z m1117 -25 c2 -41 0 -50 -15 -53 -16 -3 -17 1
-12 35 9 49 16 75 20 71 2 -2 5 -25 7 -53z m-120 -75 c59 -6 112 -9 118 -5 6
4 10 -19 10 -65 l0 -72 -662 -656 c-365 -361 -928 -922 -1253 -1247 -324 -324
-676 -674 -780 -776 l-190 -187 -59 10 c-33 5 -197 29 -364 53 -168 25 -306
46 -308 48 -2 2 659 667 1469 1478 l1473 1475 220 -23 c120 -12 267 -27 326
-33z m128 -603 l0 -412 -1053 -1053 c-828 -827 -1058 -1052 -1077 -1052 -14 0
-99 12 -190 25 -91 14 -244 37 -340 51 -96 14 -177 28 -180 31 -6 6 2820 2823
2832 2823 4 0 8 -186 8 -413z m2 -875 l-2 -418 -673 -672 c-632 -631 -675
-672 -703 -667 -16 3 -171 25 -344 50 -173 25 -327 48 -341 51 -25 5 -21 11
85 114 61 60 527 525 1036 1034 509 509 930 925 935 926 7 0 9 -144 7 -418z
m-2 -885 l0 -422 -283 -283 c-221 -221 -288 -282 -307 -282 -14 0 -161 20
-325 45 -165 25 -321 48 -347 52 -27 3 -48 7 -48 8 0 5 1296 1301 1303 1303 4
1 7 -188 7 -421z m155 182 c44 -41 154 -145 245 -230 91 -85 227 -212 302
-283 l138 -128 -58 -40 c-31 -22 -79 -57 -107 -77 -94 -70 -580 -427 -611
-449 -17 -12 -34 -19 -38 -15 -3 3 -6 308 -6 676 l0 670 27 -24 c16 -13 64
-58 108 -100z m-155 -948 c0 -165 -3 -302 -7 -304 -5 -3 -51 2 -103 10 -52 8
-166 24 -253 36 -87 12 -158 26 -158 30 0 10 503 526 514 527 4 0 7 -135 7
-299z"/>
<path d="M4185 5193 c-55 -13 -87 -80 -64 -135 17 -41 79 -70 123 -57 17 5 32
9 33 9 1 0 9 13 18 30 25 49 19 88 -19 126 -33 33 -48 37 -91 27z m75 -43 c30
-30 27 -83 -6 -109 -15 -12 -35 -21 -46 -21 -28 0 -68 45 -68 76 0 62 78 96
120 54z"/>
<path d="M6396 4969 c-36 -42 -35 -89 3 -131 75 -84 201 0 157 105 -17 43 -41
57 -94 57 -33 0 -45 -6 -66 -31z m119 -14 c59 -58 -2 -149 -80 -119 -8 4 -22
19 -31 35 -39 77 51 145 111 84z"/>
<path d="M3107 4685 c-51 -52 -37 -134 29 -161 58 -24 115 2 130 61 24 95 -91
167 -159 100z m107 -16 c20 -16 26 -29 26 -59 0 -67 -68 -93 -115 -45 -29 28
-32 61 -7 91 30 38 59 42 96 13z"/>
<path d="M5498 4431 c-27 -24 -33 -36 -33 -70 0 -90 102 -135 166 -72 63 63
16 171 -75 171 -14 0 -40 -13 -58 -29z m109 -16 c68 -47 3 -162 -70 -124 -50
27 -62 79 -27 117 24 25 66 29 97 7z"/>
</g>
</svg>
