<?xml version="1.0" encoding="UTF-8" standalone="no"?>
<!DOCTYPE svg PUBLIC "-//W3C//DTD SVG 1.1//EN" "http://www.w3.org/Graphics/SVG/1.1/DTD/svg11.dtd">
<svg width="100%" height="100%" viewBox="0 0 1024 1024" version="1.1" xmlns="http://www.w3.org/2000/svg" xmlns:xlink="http://www.w3.org/1999/xlink" xml:space="preserve" xmlns:serif="http://www.serif.com/" style="fill-rule:evenodd;clip-rule:evenodd;stroke-linejoin:round;stroke-miterlimit:2;">
    <g transform="matrix(0.1,0,0,-0.1,0,1024)">
        <path d="M2644,8479C2562,8412 2478,8344 2458,8327C2433,8307 2420,8288 2420,8272C2420,8259 2627,7833 2881,7327C3300,6489 3490,6102 3490,6087C3490,6084 3356,5983 3193,5864C3029,5744 2758,5545 2590,5421C2422,5298 2195,5132 2085,5052C1975,4972 1847,4877 1801,4842L1718,4777L1725,4481C1730,4281 1736,4181 1744,4173C1750,4167 1879,4119 2030,4067C3134,3684 4406,3239 5120,2985C6249,2583 6687,2430 6707,2430C6731,2430 6776,2477 6929,2662L7051,2810C7051,2810 8062,4046 8068,4054C8073,4060 8148,4152 8234,4258C8320,4364 8395,4462 8400,4476C8406,4490 8410,4584 8410,4686L8410,4871L8475,4940C8511,4978 8540,5012 8540,5016C8540,5019 8520,5086 8495,5164C8471,5241 8401,5472 8340,5675C8189,6176 8137,6344 8073,6550C8043,6646 7967,6898 7903,7110C7840,7322 7781,7516 7774,7542C7766,7568 7751,7594 7740,7600C7725,7608 4030,8353 3001,8555C2905,8574 2820,8592 2810,8595C2799,8599 2745,8561 2644,8479ZM5213,8069C6534,7805 7636,7584 7662,7578L7709,7568L7588,7417C7522,7333 7461,7259 7455,7251C7439,7235 7743,7172 5020,7754C4621,7839 4103,7949 3869,7999C3511,8075 3229,8135 2566,8279L2487,8296L2641,8423C2726,8492 2799,8550 2803,8550C2808,8550 3893,8334 5213,8069ZM2786,8187C2799,8172 3603,6533 3692,6341C3713,6295 3727,6254 3723,6250C3694,6225 3528,6109 3526,6112C3524,6113 3497,6171 3465,6240C3433,6309 3199,6781 2944,7290C2690,7799 2479,8224 2476,8236C2470,8256 2473,8256 2627,8223C2714,8204 2785,8188 2786,8187ZM3003,8141C3075,8124 3329,8070 3565,8020C3802,7970 4351,7853 4785,7760C5220,7667 5717,7561 5890,7524C6063,7487 6482,7398 6820,7326L7435,7194L7466,7095C7484,7040 7583,6725 7688,6395C7792,6065 7928,5640 7989,5451C8051,5262 8099,5104 8098,5101C8096,5097 7670,5210 7150,5352C5952,5679 3977,6216 3812,6260C3769,6271 3767,6273 3720,6373C3590,6650 3296,7254 3038,7773C2903,8044 2845,8170 2855,8170C2863,8170 2930,8157 3003,8141ZM7869,7085C7940,6849 8086,6367 8193,6015C8300,5663 8410,5301 8438,5210C8465,5119 8489,5040 8491,5033C8493,5027 8441,4963 8375,4891C8309,4820 8253,4766 8251,4773C8249,4780 8196,4943 8135,5135C8073,5328 7968,5654 7902,5860C7836,6066 7745,6352 7700,6495C7655,6638 7587,6851 7549,6969C7511,7087 7480,7190 7480,7198C7480,7206 7495,7231 7512,7254C7659,7441 7734,7532 7737,7524C7738,7519 7798,7322 7869,7085ZM4200,6111C4673,5983 6300,5541 7175,5302C7335,5259 7612,5183 7792,5134L8120,5045L8178,4857L8117,4786C8083,4747 7992,4639 7915,4545C7838,4452 7658,4238 7515,4070C7372,3902 7132,3618 6981,3438L6708,3112L6383,3221C6205,3280 6040,3340 6016,3354C5954,3390 5883,3472 5847,3548C5816,3612 5815,3621 5812,3765L5808,3915L5854,3852C5932,3747 6075,3656 6247,3603C6329,3578 6349,3576 6520,3576C6723,3575 6798,3587 6938,3641C7098,3702 7214,3799 7381,4011C7512,4176 8047,4904 8063,4938C8071,4955 8070,4964 8059,4975C8040,4994 7662,5091 7634,5084C7620,5080 7561,5015 7485,4919C7415,4832 7356,4760 7352,4760C7349,4760 7314,4769 7276,4779C7237,4790 7185,4804 7161,4810L7117,4822L7124,5014C7131,5192 7130,5207 7113,5221C7103,5230 7005,5260 6894,5289C6738,5329 6688,5339 6668,5331C6654,5326 6546,5205 6419,5055L6195,4788L6190,4996C6185,5192 6184,5207 6162,5242C6103,5337 5983,5402 5805,5435C5685,5458 5473,5451 5383,5422L5321,5402L5295,5456C5246,5556 5116,5641 4956,5675C4895,5689 4850,5691 4751,5687C4682,5684 4615,5678 4603,5675C4580,5668 4580,5668 4580,5789L4580,5909L4553,5924C4498,5951 3812,6140 3764,6140C3670,6140 3650,6103 3650,5927L3650,5803L3343,5544C3175,5401 2940,5203 2821,5103C2702,5002 2598,4920 2589,4920C2581,4920 2534,4934 2485,4950C2436,4967 2384,4980 2369,4980C2342,4980 2247,4922 2222,4892C2213,4879 2211,4845 2216,4749L2223,4623L2006,4695C1887,4735 1788,4769 1786,4771C1784,4773 1837,4816 1904,4866C2028,4960 3542,6070 3725,6202C3746,6217 3771,6228 3780,6225C3788,6223 3977,6171 4200,6111ZM3911,6066C3979,6047 4143,6001 4275,5965C4407,5928 4519,5895 4524,5890C4528,5885 4513,5869 4490,5854C4449,5827 4447,5827 4392,5839C4256,5871 4297,5894 3963,5604C2999,4768 3010,4778 3010,4752C3010,4731 3024,4724 3120,4694C3150,4685 3179,4675 3183,4673C3193,4667 3148,4618 3108,4589L3081,4569L2738,4694C2549,4762 2365,4829 2328,4842C2290,4854 2260,4868 2260,4871C2260,4882 2355,4940 2371,4940C2380,4940 2426,4927 2475,4910C2524,4894 2576,4880 2591,4880C2613,4880 2709,4955 3042,5237C3771,5851 3860,5930 3860,5956C3860,5973 3842,5984 3763,6015C3723,6031 3690,6046 3690,6049C3690,6053 3697,6066 3706,6078C3727,6109 3762,6107 3911,6066ZM3810,5950C3810,5947 3783,5921 3750,5892L3690,5839L3690,5997L3750,5976C3783,5964 3810,5953 3810,5950ZM4540,5746C4540,5655 4539,5652 4516,5646C4503,5643 4485,5637 4476,5634C4462,5629 4460,5639 4460,5708L4460,5787L4498,5813C4518,5827 4536,5839 4538,5839C4539,5840 4540,5798 4540,5746ZM4360,5803L4420,5787L4420,5609L4389,5592C4371,5583 4342,5563 4325,5548C4307,5532 4290,5520 4286,5520C4283,5520 4280,5544 4280,5573C4280,5642 4292,5820 4297,5820C4299,5820 4327,5813 4360,5803ZM4242,5628L4238,5465L4202,5409C4165,5353 4047,5243 3495,4750L3255,4536L3252,4605C3250,4649 3243,4681 3234,4691C3226,4700 3184,4718 3140,4731C3096,4744 3061,4758 3063,4762C3065,4770 3340,5011 3840,5445C3980,5566 4126,5693 4165,5727C4203,5761 4237,5789 4240,5789C4243,5790 4243,5717 4242,5628ZM4952,5635C5097,5605 5233,5513 5266,5422C5275,5396 5287,5371 5291,5366C5295,5361 5335,5368 5382,5381C5454,5402 5486,5405 5625,5405C5802,5405 5885,5388 5998,5331C6281,5188 6174,4912 5759,4716C5501,4594 5044,4478 4615,4426C4544,4417 4467,4408 4445,4405L4404,4399L4358,4477C4247,4664 4140,4968 4140,5097C4140,5209 4187,5330 4274,5441C4344,5530 4473,5604 4613,5634C4696,5653 4869,5653 4952,5635ZM6880,5250C6984,5223 7072,5200 7075,5200C7084,5200 6947,5030 6606,4615C6424,4395 6265,4196 6253,4173C6197,4074 6220,3982 6317,3924C6469,3833 6693,3866 6816,3997C6840,4023 6992,4216 7153,4425C7547,4937 7640,5052 7654,5047C7660,5045 7745,5023 7843,4999C7940,4975 8020,4952 8020,4948C8020,4926 7348,4026 7237,3900C7131,3779 7024,3708 6880,3662C6747,3620 6708,3615 6525,3615C6313,3616 6268,3625 6111,3702C6029,3742 5993,3767 5935,3824C5842,3916 5816,3977 5818,4098C5819,4206 5840,4273 5898,4359C5959,4450 6672,5300 6686,5300C6689,5300 6776,5278 6880,5250ZM4110,5204C4103,5171 4103,5055 4109,4855C4119,4514 4124,4485 4209,4285C4260,4168 4368,3969 4400,3937C4416,3920 4425,3919 4516,3930C5038,3989 5427,4082 5705,4215C5755,4239 5796,4257 5798,4255C5799,4254 5795,4240 5788,4224C5780,4204 5775,4108 5772,3920C5769,3658 5769,3641 5790,3580C5814,3508 5839,3463 5885,3411C5908,3384 5911,3378 5895,3384C5862,3397 4927,3714 4065,4004L3255,4277L3249,4477L3557,4752C3726,4904 3921,5079 3990,5142C4059,5206 4116,5256 4118,5255C4119,5254 4116,5231 4110,5204ZM7081,4968L7075,4800L6763,4408C6592,4192 6436,3997 6417,3975L6382,3935L6344,3955C6259,3999 6241,4074 6293,4162C6307,4186 6443,4356 6596,4540C6748,4724 6920,4935 6978,5007C7036,5080 7085,5139 7086,5137C7087,5136 7085,5060 7081,4968ZM6150,4848L6149,4735L6024,4585C5955,4503 5881,4407 5858,4373C5819,4315 5811,4309 5718,4265C5417,4124 5094,4041 4601,3980C4510,3969 4433,3960 4428,3960C4424,3960 4420,4050 4420,4160C4420,4359 4420,4360 4443,4364C4455,4367 4530,4376 4610,4385C4975,4426 5399,4526 5670,4635C5863,4712 5963,4773 6060,4871C6107,4918 6146,4958 6148,4959C6149,4959 6150,4909 6150,4848ZM4170,4795C4196,4712 4272,4545 4325,4455L4380,4361L4380,4045L4341,4111C4253,4261 4185,4437 4161,4575C4149,4642 4141,4853 4151,4842C4155,4838 4163,4817 4170,4795ZM2665,4677L3055,4535L3061,4341L2663,4475L2265,4610L2262,4715C2261,4773 2263,4820 2267,4819C2271,4819 2451,4755 2665,4677ZM8357,4482C8345,4457 8113,4169 7800,3790C7725,3699 7511,3438 7325,3210C7139,2982 6928,2726 6858,2642L6730,2488L6730,3079L6793,3152C6828,3192 6990,3385 7152,3580C7315,3775 7546,4050 7667,4191C7787,4332 7953,4529 8035,4629C8118,4728 8188,4809 8191,4810C8194,4810 8204,4785 8214,4755C8223,4725 8237,4700 8244,4700C8251,4700 8281,4728 8311,4762L8365,4824L8368,4666C8370,4550 8367,4501 8357,4482ZM7210,4755C7262,4741 7311,4728 7318,4725C7325,4722 7262,4632 7153,4493C7056,4368 6934,4209 6882,4142C6830,4074 6766,4003 6741,3984C6684,3942 6585,3910 6516,3911C6416,3912 6409,3899 6663,4216C6790,4377 6942,4569 7000,4643C7058,4718 7107,4779 7110,4779C7113,4780 7158,4769 7210,4755ZM3272,4226C4098,3949 5206,3576 5732,3398L6690,3075L6690,2772C6690,2605 6686,2471 6682,2474C6678,2476 6425,2567 6120,2675C5815,2783 5396,2932 5190,3005C4455,3267 3353,3652 1828,4182L1770,4202L1770,4338C1770,4414 1767,4532 1763,4603C1760,4673 1759,4730 1762,4730C1766,4730 2445,4503 3272,4226ZM3210,4460C3210,4282 3213,4287 3140,4316L3100,4332L3100,4525L3152,4572C3181,4598 3206,4619 3208,4620C3209,4620 3210,4548 3210,4460ZM8032,4009C8032,4009 7910,3854 7910,3857C7910,3860 7937,3895 7971,3936L8032,4009ZM7880,3820C7883,3820 7230,3031 7342,3168C7454,3304 7619,3507 7710,3618C7801,3729 7877,3820 7880,3820Z" style="fill-rule:nonzero;"/>
    </g>
</svg>
