<?xml version="1.0" standalone="no"?>
<!DOCTYPE svg PUBLIC "-//W3C//DTD SVG 20010904//EN"
 "http://www.w3.org/TR/2001/REC-SVG-20010904/DTD/svg10.dtd">
<svg version="1.0" xmlns="http://www.w3.org/2000/svg"
 width="1024.000000pt" height="1024.000000pt" viewBox="0 0 1024.000000 1024.000000"
 preserveAspectRatio="xMidYMid meet">

<g transform="translate(0.000000,1024.000000) scale(0.100000,-0.100000)"
fill="#000000" stroke="none">
<path d="M3255 8275 c-138 -103 -181 -140 -183 -159 -2 -13 8 -47 22 -75 14
-27 52 -110 85 -183 32 -73 135 -297 229 -498 188 -404 200 -431 282 -610 32
-69 128 -278 215 -465 241 -521 355 -774 355 -788 0 -8 -33 -32 -72 -54 -157
-88 -332 -185 -523 -290 -110 -61 -310 -171 -445 -245 -135 -75 -378 -208
-540 -298 -548 -301 -618 -341 -622 -353 -2 -7 -1 -144 2 -306 l5 -294 75 -29
c41 -16 183 -69 315 -118 132 -49 308 -114 390 -145 83 -31 197 -73 255 -95
356 -131 1417 -527 1875 -700 689 -260 667 -252 689 -242 12 6 242 173 511
371 270 199 562 414 650 478 88 64 183 133 210 153 28 20 82 60 120 88 96 70
548 402 787 578 109 80 205 152 213 160 13 13 15 64 15 340 l0 324 -34 113
c-19 61 -48 155 -64 207 -17 52 -49 158 -72 235 -99 331 -405 1327 -480 1560
-21 66 -64 203 -95 305 -99 324 -125 400 -145 410 -16 9 -304 68 -1287 265
-95 19 -293 59 -440 89 -265 54 -778 155 -1624 321 -239 47 -449 85 -465 84
-21 0 -78 -37 -209 -134z m532 36 c164 -33 418 -82 564 -110 315 -60 902 -177
1484 -296 231 -47 645 -130 919 -185 275 -55 501 -101 502 -103 3 -3 -175
-219 -209 -254 l-22 -22 -81 20 c-45 10 -166 37 -270 59 -104 21 -274 57 -379
80 -104 22 -221 47 -260 55 -38 8 -153 33 -255 54 -209 44 -438 93 -678 145
-404 88 -1220 259 -1712 358 -113 23 -207 44 -210 46 -11 9 268 211 292 212 9
0 151 -27 315 -59z m-469 -226 c95 -19 177 -37 183 -40 14 -9 62 -108 182
-375 58 -129 167 -372 242 -540 76 -168 175 -388 220 -490 348 -779 425 -955
425 -966 0 -11 -258 -169 -265 -162 -2 2 -41 86 -88 188 -159 347 -259 565
-289 630 -102 217 -298 642 -343 740 -53 115 -82 177 -170 365 -153 325 -295
647 -295 669 0 21 -2 21 198 -19z m488 -101 c120 -25 314 -65 429 -89 356 -75
851 -180 1005 -214 51 -12 363 -77 580 -122 80 -17 183 -39 230 -49 47 -11
193 -42 325 -70 534 -114 601 -129 627 -135 24 -6 30 -17 54 -94 14 -47 45
-147 69 -221 24 -74 87 -274 140 -445 53 -170 130 -416 171 -545 84 -261 188
-591 265 -835 28 -88 61 -191 74 -230 29 -88 37 -125 29 -125 -10 0 -872 233
-1239 334 -274 76 -429 118 -460 126 -16 4 -104 28 -195 53 -354 98 -762 210
-900 247 -271 73 -391 107 -393 111 -2 2 -54 119 -117 259 -128 288 -150 339
-320 715 -67 149 -148 329 -180 400 -32 72 -69 155 -83 185 -14 30 -84 186
-155 345 -72 160 -146 325 -166 368 -23 51 -31 77 -23 77 7 0 112 -21 233 -46z
m3514 -534 c18 -58 66 -213 107 -345 148 -474 175 -561 190 -610 8 -27 80
-261 160 -520 79 -258 155 -506 168 -550 13 -44 49 -163 80 -265 89 -291 105
-344 104 -360 0 -15 -29 -39 -154 -126 l-64 -45 -46 148 c-25 81 -68 216 -95
298 -26 83 -69 218 -95 300 -26 83 -80 256 -122 385 -187 589 -227 716 -327
1035 -58 187 -119 380 -136 429 l-30 88 23 28 c113 139 192 229 198 222 4 -4
21 -54 39 -112z m-2573 -1850 c60 -16 167 -45 238 -65 72 -20 186 -51 255 -70
69 -19 168 -45 220 -60 52 -14 163 -44 245 -66 337 -92 399 -109 610 -167 642
-177 1392 -381 1460 -396 49 -11 50 -12 72 -71 35 -96 37 -92 -99 -190 -113
-79 -126 -86 -160 -82 -40 5 -155 38 -1548 434 -958 273 -1351 387 -1387 403
-23 9 -23 13 -23 185 0 96 2 175 5 175 2 0 53 -13 112 -30z m-157 -153 l0
-174 -167 -97 c-93 -54 -193 -113 -223 -131 -30 -17 -98 -56 -150 -85 -52 -29
-167 -95 -255 -145 -88 -51 -234 -134 -325 -185 -91 -51 -250 -141 -355 -200
-433 -244 -553 -310 -568 -310 -28 0 -407 134 -407 144 0 2 75 45 168 96 92
51 250 139 352 195 225 125 1005 555 1150 635 58 32 188 104 290 160 102 57
208 115 235 130 28 15 93 53 145 83 52 31 98 57 103 57 4 0 7 -78 7 -173z
m375 -314 c143 -41 305 -88 360 -103 179 -50 495 -140 760 -217 143 -41 307
-88 365 -105 58 -16 287 -81 510 -144 223 -63 439 -124 480 -135 139 -38 142
-24 -42 -156 -90 -64 -190 -135 -223 -158 -33 -23 -121 -84 -195 -136 -74 -52
-224 -158 -334 -234 -109 -77 -260 -184 -335 -237 -133 -95 -214 -152 -511
-358 -80 -55 -150 -100 -157 -100 -6 0 -116 36 -245 81 -411 142 -566 196
-878 303 -168 57 -449 155 -625 216 -176 62 -423 147 -550 190 -251 85 -680
234 -707 245 -10 4 -18 11 -18 15 0 4 195 117 433 250 237 134 554 313 702
399 149 85 315 180 370 211 55 31 187 106 292 167 l193 111 47 -15 c27 -8 165
-48 308 -90z m3165 -678 l0 -274 -139 -103 c-76 -57 -206 -151 -287 -210 -82
-59 -201 -146 -264 -193 -63 -47 -227 -167 -365 -267 -137 -100 -320 -234
-405 -297 -245 -181 -327 -242 -444 -327 -59 -43 -145 -106 -190 -139 -44 -33
-139 -103 -211 -154 -71 -52 -136 -98 -142 -104 -10 -7 -13 56 -13 310 l0 320
78 52 c131 87 270 184 652 457 102 72 286 202 410 288 124 86 263 183 310 217
188 134 300 212 395 276 167 113 467 323 554 390 24 18 48 33 52 33 5 0 9
-124 9 -275z m-5746 -324 c250 -88 384 -135 916 -318 510 -175 621 -213 850
-293 291 -101 779 -269 1175 -405 l300 -102 3 -323 c2 -304 1 -322 -15 -317
-10 3 -328 122 -708 265 -660 248 -1411 529 -2175 813 -568 211 -594 221 -611
226 -22 6 -29 87 -29 347 0 194 1 208 18 203 9 -3 134 -46 276 -96z"/>
</g>
</svg>
